:SAMPLES-PER-SECOND 30
:FULLY-SPECIFIED
:DEGREES
417
root  -34.597 34.9346 3.33161 -171.227 64.7207 179.185
RightUpLeg  -8.4608 -18.0375 -0.598122
RightLeg  7.02454 2.09817 0.123611
RightFoot  3.42607 -0.00114086 0.270844
RightToes  -29.1328 -0.137995 -0.245894
Spine  0.152293 3.74337 -2.85304
Spine1  0.0860316 7.59025 -5.00551
HEad  -53.9691 -17.0334 -12.2917
LeftShoulder1  -1.94126e-019 -3.10601e-018 -2.51263e-017
LeftArm  -17.5918 22.9605 -77.0792
LeftForeArm  27.9289 -16.1811 -2.51177
LeftHand  -0.340773 0.0482602 7.4623
RightShoulder  -4.96962e-017 0 -2.36833e-017
RightArm  -36.9209 0.904042 67.8692
RightForeArm  66.9294 1.49984 0.211821
RightHand  -0.0595388 0.137604 -1.27404
LeftUpLeg  -12.771 -9.542 -0.549087
LeftLeg  5.48079 10.1748 0.317133
LeftFoot  8.5916 -0.115635 1.70085
LeftToes  -18.9035 1.89912e-006 4.45198e-008
418
root  -34.6013 34.856 3.26755 -171.525 64.9136 178.791
RightUpLeg  -9.37426 -17.7873 -0.869995
RightLeg  8.80317 2.02017 0.182075
RightFoot  2.50643 0.00161475 0.228759
RightToes  -29.5091 -0.140555 -0.247732
Spine  0.22142 3.66083 -2.41619
Spine1  0.15071 7.53782 -4.30331
HEad  -55.9655 -15.774 -13.0147
LeftShoulder1  -1.94126e-019 -3.10601e-018 -2.51263e-017
LeftArm  -18.7016 23.7083 -78.091
LeftForeArm  28.0626 -16.3294 -2.52162
LeftHand  -0.347623 -0.0160874 7.52739
RightShoulder  -4.96962e-017 0 -2.36833e-017
RightArm  -34.0896 -4.36201 70.0923
RightForeArm  71.0156 -0.126964 -0.0830481
RightHand  -0.0466124 -1.22699 -1.12674
LeftUpLeg  -13.524 -9.24095 -0.83684
LeftLeg  7.03066 10.0064 0.581554
LeftFoot  7.73254 -0.0915151 1.51562
LeftToes  -18.7601 1.89912e-006 4.45198e-008
419
root  -34.6235 34.7833 3.20116 -171.909 65.3618 178.358
RightUpLeg  -10.2247 -17.3118 -1.18024
RightLeg  10.4249 1.94953 0.231375
RightFoot  1.64954 0.00459526 0.183711
RightToes  -29.4265 -0.141975 -0.249119
Spine  0.239549 3.38115 -2.01239
Spine1  0.209502 6.96804 -3.55537
HEad  -58.4127 -14.3647 -13.3299
LeftShoulder1  -1.94126e-019 -3.10601e-018 -2.51263e-017
LeftArm  -19.7832 24.626 -79.0825
LeftForeArm  28.411 -16.5566 -2.55693
LeftHand  -0.355929 -0.0458899 7.66721
RightShoulder  -4.96962e-017 0 -2.36833e-017
RightArm  -30.1393 -9.55727 71.8933
RightForeArm  71.3938 0.207368 -0.0262283
RightHand  -0.0736471 -2.48207 -2.45487
LeftUpLeg  -14.1475 -8.83112 -1.16448
LeftLeg  8.4086 9.97132 0.819102
LeftFoot  6.95196 -0.0727616 1.35938
LeftToes  -18.4279 1.89912e-006 4.45198e-008
420
root  -34.6458 34.7311 3.12746 -172.254 66.0382 177.94
RightUpLeg  -10.9336 -16.8736 -1.48425
RightLeg  11.6147 2.15121 0.300447
RightFoot  1.14625 0.00619308 0.15587
RightToes  -29.7323 -0.142944 -0.250212
Spine  0.160318 2.93505 -1.62189
Spine1  0.127655 5.99387 -2.75251
HEad  -60.919 -12.8107 -13.316
LeftShoulder1  -1.94126e-019 -3.10601e-018 -2.51263e-017
LeftArm  -20.6946 25.787 -80.0638
LeftForeArm  28.3523 -16.5398 -2.5479
LeftHand  -0.350327 -0.0691739 7.51687
RightShoulder  -4.96962e-017 0 -2.36833e-017
RightArm  -30.0455 -14.1006 73.0751
RightForeArm  74.2052 0.983236 0.100801
RightHand  -0.139387 -2.56641 -5.27757
LeftUpLeg  -14.5308 -8.44318 -1.48277
LeftLeg  9.29358 10.179 0.993523
LeftFoot  6.41874 -0.0624988 1.27611
LeftToes  -18.2638 1.89912e-006 4.45198e-008
421
root  -34.6592 34.6921 3.08245 -172.516 67.399 177.585
RightUpLeg  -11.6477 -15.5456 -1.71272
RightLeg  12.5332 2.1352 0.333015
RightFoot  0.79192 0.0073439 0.130569
RightToes  -29.7104 -0.143603 -0.251164
Spine  0.0311638 2.51529 -1.26762
Spine1  -0.0582531 5.06523 -2.00555
HEad  -63.0638 -11.0572 -13.0628
LeftShoulder1  -1.94126e-019 -3.10601e-018 -2.51263e-017
LeftArm  -21.5852 26.9171 -80.9445
LeftForeArm  28.1051 -16.1233 -2.48181
LeftHand  -0.347394 -0.0915039 7.42586
RightShoulder  -4.96962e-017 0 -2.36833e-017
RightArm  -29.5386 -17.9638 73.6886
RightForeArm  76.6314 2.49481 0.356265
RightHand  -0.291038 -0.768909 -7.26847
LeftUpLeg  -14.7409 -7.30171 -1.77548
LeftLeg  9.86989 10.3243 1.11184
LeftFoot  5.95965 -0.0539815 1.19853
LeftToes  -18.0851 1.89912e-006 4.45198e-008
422
root  -34.6529 34.6604 3.03251 -172.777 68.8371 177.25
RightUpLeg  -12.1902 -14.5402 -1.92317
RightLeg  13.1435 2.50898 0.418464
RightFoot  0.595244 0.00764767 0.11578
RightToes  -29.8791 -0.144091 -0.252133
Spine  -0.109993 2.03724 -0.930451
Spine1  -0.282303 4.03663 -1.30311
HEad  -64.8448 -9.25828 -12.4463
LeftShoulder1  -1.94126e-019 -3.10601e-018 -2.51263e-017
LeftArm  -22.3326 27.8531 -81.7513
LeftForeArm  28.1594 -15.3864 -2.3689
LeftHand  -0.345473 -0.0438771 7.44526
RightShoulder  -4.96962e-017 0 -2.36833e-017
RightArm  -29.0282 -21.3509 73.5529
RightForeArm  72.7833 4.85239 0.779009
RightHand  -0.346454 1.07386 -6.34652
LeftUpLeg  -14.7751 -6.46565 -2.01528
LeftLeg  10.1909 10.8567 1.2297
LeftFoot  5.56376 -0.0490834 1.17165
LeftToes  -17.7974 1.89912e-006 4.45198e-008
423
root  -34.6204 34.646 2.99365 -173.238 70.6185 176.928
RightUpLeg  -12.3762 -13.2411 -2.14771
RightLeg  13.4164 2.94966 0.506217
RightFoot  0.599957 0.00716661 0.112871
RightToes  -30.1882 -0.144548 -0.253272
Spine  -0.197056 1.66504 -0.627532
Spine1  -0.41642 3.24203 -0.67334
HEad  -65.8448 -7.65254 -11.4538
LeftShoulder1  -1.94126e-019 -3.10601e-018 -2.51263e-017
LeftArm  -22.6338 28.5075 -82.362
LeftForeArm  28.2473 -14.6906 -2.27491
LeftHand  -0.336941 0.0450998 7.37447
RightShoulder  -4.96962e-017 0 -2.36833e-017
RightArm  -32.0084 -23.6296 73.0123
RightForeArm  67.7338 6.26961 1.0427
RightHand  -0.276155 1.2165 -4.98427
LeftUpLeg  -14.3792 -5.35266 -2.24248
LeftLeg  10.1785 11.4883 1.29788
LeftFoot  5.29509 -0.0466672 1.17654
LeftToes  -17.6557 1.89912e-006 4.45198e-008
424
root  -34.5698 34.634 2.97629 -173.722 72.5896 176.611
RightUpLeg  -12.5269 -11.8836 -2.3126
RightLeg  13.6212 3.52134 0.617075
RightFoot  0.626059 0.00674655 0.112013
RightToes  -30.3797 -0.145114 -0.254596
Spine  -0.263726 1.36276 -0.438984
Spine1  -0.526399 2.59933 -0.286215
HEad  -66.1756 -6.07915 -9.82754
LeftShoulder1  -1.94126e-019 -3.10601e-018 -2.51263e-017
LeftArm  -22.6016 28.8542 -82.5249
LeftForeArm  28.6418 -14.2754 -2.24338
LeftHand  -0.353458 -0.0302738 7.63465
RightShoulder  -4.96962e-017 0 -2.36833e-017
RightArm  -36.9521 -24.8222 72.6632
RightForeArm  64.1918 6.70696 1.12924
RightHand  -0.230487 0.741944 -4.45887
LeftUpLeg  -13.9649 -4.05972 -2.4148
LeftLeg  10.2308 12.113 1.37857
LeftFoot  4.9398 -0.0428295 1.1562
LeftToes  -17.2855 1.89912e-006 4.45198e-008
